<?xml version="1.0" encoding="UTF-8"?>
<svg version="1.1" xmlns="http://www.w3.org/2000/svg" width="1024" height="1024" viewBox="150 150 750 400">
<path d="M0 0 C1.63346063 6.26187231 2.31863989 12.12059199 2.3359375 18.58203125 C2.3459227 19.92342415 2.3459227 19.92342415 2.35610962 21.29191589 C2.36617827 23.17855802 2.37092845 25.06523534 2.37060547 26.9519043 C2.37493072 29.76740256 2.41117862 32.58126749 2.44921875 35.39648438 C2.52804652 48.03950168 1.02466718 59.73213826 -2 72 C-2.2568457 73.05501709 -2.51369141 74.11003418 -2.77832031 75.19702148 C-3.40213279 77.5901726 -4.07994408 79.95064769 -4.8125 82.3125 C-5.18979248 83.54347412 -5.18979248 83.54347412 -5.57470703 84.79931641 C-10.897743 101.57128564 -19.46884451 117.70161762 -31 131 C-31.65226563 131.79664063 -32.30453125 132.59328125 -32.9765625 133.4140625 C-40.34664751 142.10910661 -49.85887912 150.61936932 -60 156 C-60.66 156 -61.32 156 -62 156 C-62 156.66 -62 157.32 -62 158 C-61.08605469 158.02578125 -60.17210937 158.0515625 -59.23046875 158.078125 C-49.90317739 158.44087295 -40.78805937 159.52204351 -31.5625 160.9375 C-29.79579956 161.20530273 -29.79579956 161.20530273 -27.9934082 161.47851562 C-19.01859162 162.84073673 -19.01859162 162.84073673 -15.56103516 163.38134766 C0.49406456 165.83018175 16.80614547 165.1873288 33 165 C25.04288567 187.79063962 13.73766457 206.62737092 -3 224 C-3.65355469 224.71671875 -4.30710937 225.4334375 -4.98046875 226.171875 C-23.96234529 246.40841715 -52.89775082 258.10742383 -80.3359375 259.28125 C-110.4472052 260.03058423 -140.93061661 253.34293488 -170 246 C-134.66882468 209.72076094 -75.69497407 201.50896251 -28 193 C-33.3064154 192.12328407 -38.43475089 191.82702075 -43.80859375 191.796875 C-44.64383072 191.78981537 -45.47906769 191.78275574 -46.33961487 191.77548218 C-78.33516858 191.5668562 -110.48710862 193.28030693 -140 207 C-141.16273438 207.52207031 -142.32546875 208.04414063 -143.5234375 208.58203125 C-157.99586954 215.40292361 -169.58666341 224.94724959 -181 236 C-181.7115625 236.67160156 -182.423125 237.34320313 -183.15625 238.03515625 C-187.27830917 242.00354216 -190.69288604 246.33612133 -194 251 C-195 249 -195 249 -194.21826172 246.35571289 C-193.79303223 245.2393042 -193.36780273 244.12289551 -192.9296875 242.97265625 C-192.69751022 242.36077957 -192.46533295 241.74890289 -192.22612 241.1184845 C-191.45294518 239.09557937 -190.66570425 237.07861407 -189.875 235.0625 C-189.6050119 234.37005188 -189.3350238 233.67760376 -189.05685425 232.96417236 C-175.73742759 198.93515398 -158.23456777 168.40197745 -134 141 C-133.55785156 140.50000488 -133.11570312 140.00000977 -132.66015625 139.48486328 C-126.10238688 132.12638076 -119.20429839 125.1075351 -112.25 118.125 C-111.45787109 117.32819824 -110.66574219 116.53139648 -109.84960938 115.71044922 C-105.65165019 111.52390708 -101.37409712 107.5021559 -96.88037109 103.63525391 C-93.90507999 101.04780911 -91.05514204 98.33036174 -88.1875 95.625 C-83.21094451 90.96251514 -78.10365063 86.57120351 -72.77734375 82.30859375 C-69.00257675 79.17091823 -65.44523913 75.82242776 -61.86425781 72.4675293 C-56.7731239 67.72574196 -51.45063285 63.32555232 -46 59 C-81.64373842 70.88124614 -115.02012549 96.31451227 -142 122 C-143.08861328 123.02673828 -143.08861328 123.02673828 -144.19921875 124.07421875 C-149.62092695 129.32549997 -154.32183124 135.08623517 -159 141 C-159.81726563 142.01191406 -160.63453125 143.02382813 -161.4765625 144.06640625 C-167.31708274 151.38291522 -172.32773113 158.99882099 -176.94287109 167.14111328 C-177.94013236 168.89472696 -178.96342233 170.63346457 -179.98828125 172.37109375 C-191.5748909 192.827613 -199.93350353 216.65801193 -203 240 C-205.59374448 236.10938329 -205.93015466 232.69228804 -206.6015625 228.125 C-206.732211 227.23804443 -206.8628595 226.35108887 -206.99746704 225.43725586 C-208.21528754 216.50218648 -208.45599625 207.65259534 -208.39111328 198.64550781 C-208.37500077 196.00012715 -208.39110045 193.35627327 -208.41015625 190.7109375 C-208.46675522 145.55591802 -192.09751541 104.59529562 -160.48828125 72.4453125 C-132.68610108 45.79268649 -94.47322555 34.06561261 -58.53001404 23.01647949 C-29.71819715 15.19048516 -29.71819715 15.19048516 -3.7265625 1.27734375 C-2 0 -2 0 0 0 Z " fill="#82CB6A" transform="translate(605,174)"/>
<path d="M0 0 C3.92230945 1.33637643 7.82767252 2.7203225 11.734375 4.1015625 C12.90556885 4.51365967 14.0767627 4.92575684 15.28344727 5.3503418 C17.57765077 6.16300807 19.86750187 6.98810159 22.15209961 7.82739258 C23.72229858 8.39043091 23.72229858 8.39043091 25.32421875 8.96484375 C26.24952393 9.30370605 27.1748291 9.64256836 28.12817383 9.99169922 C34.13825098 11.52559837 39.30294479 10.60397618 45.19921875 9 C45.87379623 8.81905792 46.54837372 8.63811584 47.24339294 8.45169067 C48.68558445 8.06353642 50.12669333 7.67134051 51.56677246 7.27542114 C53.83438952 6.65199034 56.10472469 6.0394886 58.37597656 5.42944336 C65.43246099 3.52964216 72.47785095 1.59057854 79.51953125 -0.36328125 C80.66252686 -0.67773193 81.80552246 -0.99218262 82.9831543 -1.31616211 C85.07155245 -1.89203997 87.15788295 -2.47550203 89.24145508 -3.06860352 C102.05822497 -6.60855575 114.54109136 -7.58892466 127.8046875 -7.46484375 C129.17773375 -7.46338185 130.55078111 -7.46272754 131.92382812 -7.46289062 C141.85138173 -7.41814952 141.85138173 -7.41814952 142.9921875 -6.27734375 C144.19871925 16.08558186 129.64525409 38.63267017 115.39453125 54.640625 C97.30491455 73.52948839 71.27221933 87.24531571 44.83203125 88.05859375 C42.1963508 88.08895376 39.56509255 88.10585513 36.9296875 88.09765625 C35.89930862 88.09634201 35.89930862 88.09634201 34.84811401 88.09500122 C6.06923821 87.97392843 -18.80616438 76.28135215 -39.6328125 56.53515625 C-57.03737197 38.33222249 -67.6270428 15.77403892 -70.0078125 -9.27734375 C-53.1556221 -17.70343895 -16.84269093 -5.51820448 0 0 Z " fill="#0A581C" transform="translate(475.0078125,452.27734375)"/>
<path d="M0 0 C18.10702743 2.6479423 35.79494471 4.96880471 54.125 4.75 C55.63280637 4.73992195 57.14061947 4.73080486 58.6484375 4.72265625 C62.26577012 4.70108917 65.88283803 4.66684295 69.5 4.625 C61.54288567 27.41563962 50.23766457 46.25237092 33.5 63.625 C32.84644531 64.34171875 32.19289063 65.0584375 31.51953125 65.796875 C12.53765471 86.03341715 -16.39775082 97.73242383 -43.8359375 98.90625 C-73.9472052 99.65558423 -104.43061661 92.96793488 -133.5 85.625 C-98.16882468 49.34576094 -39.19497407 41.13396251 8.5 32.625 C3.1935846 31.74828407 -1.93475089 31.45202075 -7.30859375 31.421875 C-8.14383072 31.41481537 -8.97906769 31.40775574 -9.83961487 31.40048218 C-41.83516858 31.1918562 -73.98710862 32.90530693 -103.5 46.625 C-105.24410156 47.40810547 -105.24410156 47.40810547 -107.0234375 48.20703125 C-121.49586954 55.02792361 -133.08666341 64.57224959 -144.5 75.625 C-145.2115625 76.29660156 -145.923125 76.96820313 -146.65625 77.66015625 C-150.77830917 81.62854216 -154.19288604 85.96112133 -157.5 90.625 C-158.5 88.625 -158.5 88.625 -157.57543945 85.69506836 C-157.09613438 84.44852282 -156.60808614 83.20531836 -156.11328125 81.96484375 C-155.72586006 80.9689901 -155.72586006 80.9689901 -155.33061218 79.95301819 C-154.78005912 78.54190244 -154.22581335 77.13222281 -153.66821289 75.72387695 C-152.82659094 73.59809119 -151.99524653 71.46853617 -151.16601562 69.33789062 C-150.10901228 66.62853939 -149.03484384 63.92708886 -147.94458008 61.23095703 C-147.0801586 59.07319038 -146.24036105 56.90492982 -145.4519043 54.71826172 C-143.94048371 50.74953017 -143.25263603 49.05730323 -139.48046875 46.890625 C-138.22878906 46.55546875 -136.97710937 46.2203125 -135.6875 45.875 C-134.15174206 45.4128665 -132.61943832 44.93917259 -131.08984375 44.45703125 C-129.78055908 44.04638428 -129.78055908 44.04638428 -128.44482422 43.62744141 C-122.4283431 41.57938375 -116.59904166 39.04084503 -110.75 36.5625 C-110.08902313 36.28365967 -109.42804626 36.00481934 -108.74703979 35.7175293 C-74.52674103 21.49163787 -74.52674103 21.49163787 -41.47265625 4.8515625 C-40.20929443 4.1548645 -40.20929443 4.1548645 -38.92041016 3.4440918 C-37.32451634 2.55607182 -35.73844937 1.65002557 -34.16552734 0.72192383 C-23.47884746 -5.23079635 -11.52988135 -1.70795338 0 0 Z " fill="#429E3E" transform="translate(568.5,334.375)"/>
<path d="M0 0 C27.16108218 -1.78213662 54.33350519 5.39550183 79.7421875 14.37890625 C80.91338135 14.79100342 82.0845752 15.20310059 83.29125977 15.62768555 C85.58546327 16.44035182 87.87531437 17.26544534 90.15991211 18.10473633 C91.73011108 18.66777466 91.73011108 18.66777466 93.33203125 19.2421875 C94.25733643 19.5810498 95.1826416 19.91991211 96.13598633 20.26904297 C102.14606348 21.80294212 107.31075729 20.88131993 113.20703125 19.27734375 C113.88160873 19.09640167 114.55618622 18.91545959 115.25120544 18.72903442 C116.69339695 18.34088017 118.13450583 17.94868426 119.57458496 17.55276489 C121.84220202 16.92933409 124.11253719 16.31683235 126.38378906 15.70678711 C133.44027349 13.80698591 140.48566345 11.86792229 147.52734375 9.9140625 C148.67033936 9.59961182 149.81333496 9.28516113 150.9909668 8.96118164 C153.07936495 8.38530378 155.16569545 7.80184172 157.24926758 7.20874023 C170.06603747 3.668788 182.54890386 2.68841909 195.8125 2.8125 C197.18554625 2.8139619 198.55859361 2.81461621 199.93164062 2.81445312 C209.85919423 2.85919423 209.85919423 2.85919423 211 4 C211.63154753 15.70565997 206.90458723 27.54923709 202 38 C201.5359375 39.01707031 201.071875 40.03414063 200.59375 41.08203125 C199.86671875 42.55736328 199.86671875 42.55736328 199.125 44.0625 C198.47917969 45.37927734 198.47917969 45.37927734 197.8203125 46.72265625 C193.80104907 51.75104805 187.17856226 52.5906049 181.125 53.625 C180.46886719 53.74617188 179.81273437 53.86734375 179.13671875 53.9921875 C171.31006041 55.39579874 163.53206719 56.15412986 155.58203125 56.203125 C154.42523613 56.21378242 154.42523613 56.21378242 153.24507141 56.22465515 C127.42137828 56.4083677 104.67088686 54.11547735 80 46 C79.07719238 45.69964844 78.15438477 45.39929688 77.20361328 45.08984375 C13.36390103 23.99637187 13.36390103 23.99637187 0.69140625 2.8125 C0 1 0 1 0 0 Z " fill="#44A040" transform="translate(407,442)"/>
<path d="M0 0 C-4.15215003 4.76226187 -8.69047858 7.21330892 -14.375 9.875 C-15.28749512 10.30554688 -16.19999023 10.73609375 -17.14013672 11.1796875 C-34.64069977 19.16771832 -53.20803089 24.4081411 -72.5 24.3125 C-73.6247876 24.30976074 -74.7495752 24.30702148 -75.90844727 24.30419922 C-100.49931388 24.00045741 -100.49931388 24.00045741 -108 19 C-107.06542969 18.764021 -106.13085938 18.52804199 -105.16796875 18.28491211 C-100.77726435 17.17451929 -96.3884122 16.05691363 -92 14.9375 C-91.20368164 14.73469421 -90.40736328 14.53188843 -89.58691406 14.32293701 C-79.65758828 11.7888278 -69.80522053 9.10934006 -60 6.125 C-39.87057834 0.15186785 -20.8510938 -0.40477484 0 0 Z " fill="#81C932" transform="translate(617,445)"/>
<path d="M0 0 C9.24 0 18.48 0 28 0 C27.67 0.99 27.34 1.98 27 3 C23.25014675 3.0871747 19.50055445 3.14045003 15.75 3.1875 C14.15478516 3.22520508 14.15478516 3.22520508 12.52734375 3.26367188 C11.50253906 3.27333984 10.47773437 3.28300781 9.421875 3.29296875 C8.47924805 3.3086792 7.53662109 3.32438965 6.56542969 3.34057617 C4 3 4 3 0 0 Z " fill="#48A246" transform="translate(503,430)"/>
<path d="M0 0 C-5.4740365 3.80141424 -10.86637187 7.35619477 -17 10 C-17.99 9.67 -18.98 9.34 -20 9 C-16.04 7.02 -12.08 5.04 -8 3 C-9.58272601 1.41727399 -11.38034003 1.65264253 -13.5625 1.4375 C-14.38878906 1.35371094 -15.21507812 1.26992188 -16.06640625 1.18359375 C-16.70449219 1.12300781 -17.34257813 1.06242187 -18 1 C-18 0.67 -18 0.34 -18 0 C-15.3753399 -0.19430855 -12.75053235 -0.38073238 -10.125 -0.5625 C-9.00544922 -0.64661133 -9.00544922 -0.64661133 -7.86328125 -0.73242188 C-2.2265625 -1.11328125 -2.2265625 -1.11328125 0 0 Z " fill="#8CD034" transform="translate(617,446)"/>
<path d="M0 0 C0.33 0 0.66 0 1 0 C0.77499244 12.60042324 -6.23409979 24.69005682 -13 35 C-13.33 34.34 -13.66 33.68 -14 33 C-12.85546875 30.75 -12.85546875 30.75 -11.1875 28 C-8.18966399 22.73465926 -6.75275508 17.98310507 -6 12 C-5.34 12 -4.68 12 -4 12 C-3.67 10.35 -3.34 8.7 -3 7 C-2.34 7 -1.68 7 -1 7 C-0.67 4.69 -0.34 2.38 0 0 Z " fill="#2B8F28" transform="translate(615,457)"/>
<path d="M0 0 C0.25 6.625 0.25 6.625 -2 10 C-2.33 8.02 -2.66 6.04 -3 4 C-4.32 4.33 -5.64 4.66 -7 5 C-7 5.66 -7 6.32 -7 7 C-8.98 7.33 -10.96 7.66 -13 8 C-10.83676753 5.68757908 -8.62352196 3.9843604 -5.9375 2.3125 C-5.24527344 1.87550781 -4.55304687 1.43851562 -3.83984375 0.98828125 C-2 0 -2 0 0 0 Z " fill="#399942" transform="translate(618,446)"/>
<path d="M0 0 C0.66 0.66 1.32 1.32 2 2 C1.88679697 5.28288776 0.71715137 6.30354487 -1.5625 8.75 C-2.7690625 9.86375 -2.7690625 9.86375 -4 11 C-3.5247412 9.35303396 -3.04468109 7.70745272 -2.5625 6.0625 C-2.29566406 5.14597656 -2.02882813 4.22945313 -1.75390625 3.28515625 C-1 1 -1 1 0 0 Z " fill="#328B2F" transform="translate(414,414)"/>
<path d="M0 0 C0.66 0.33 1.32 0.66 2 1 C0.3125 3.5 0.3125 3.5 -2 6 C-4.75 6.3125 -4.75 6.3125 -7 6 C-2.25 1.125 -2.25 1.125 0 0 Z " fill="#2F912A" transform="translate(454,405)"/>
<path d="M0 0 C0 3.77910478 -0.99703962 4.46106101 -3.5 7.1875 C-4.47453125 8.26064453 -4.47453125 8.26064453 -5.46875 9.35546875 C-5.9740625 9.89816406 -6.479375 10.44085938 -7 11 C-7 10.01 -7 9.02 -7 8 C-6.505 7.525625 -6.01 7.05125 -5.5 6.5625 C-3.53831211 4.88006936 -3.53831211 4.88006936 -4 1 C-2.68 0.67 -1.36 0.34 0 0 Z " fill="#248B1F" transform="translate(612,384)"/>
<path d="M0 0 C-1.59860649 0.55786268 -3.20417905 1.09579568 -4.8125 1.625 C-5.70582031 1.92664063 -6.59914063 2.22828125 -7.51953125 2.5390625 C-10 3 -10 3 -13 1 C-11.58622218 0.63447197 -10.16879424 0.28304505 -8.75 -0.0625 C-7.96109375 -0.25972656 -7.1721875 -0.45695312 -6.359375 -0.66015625 C-3.89605178 -1.01497267 -2.34395868 -0.76877544 0 0 Z " fill="#6BBD1F" transform="translate(522,463)"/>
<path d="M0 0 C0 3.39593478 -0.52165948 4.06619881 -2.5 6.6875 C-2.9640625 7.31011719 -3.428125 7.93273437 -3.90625 8.57421875 C-4.2671875 9.04472656 -4.628125 9.51523437 -5 10 C-5.99 9.67 -6.98 9.34 -8 9 C-5.36 6.03 -2.72 3.06 0 0 Z " fill="#6AC14D" transform="translate(438,253)"/>
<path d="M0 0 C1.32 0.33 2.64 0.66 4 1 C4 1.66 4 2.32 4 3 C4.99 4.485 4.99 4.485 6 6 C4.68 5.67 3.36 5.34 2 5 C1.67 5.99 1.34 6.98 1 8 C0.67 5.36 0.34 2.72 0 0 Z " fill="#094A0E" transform="translate(405,443)"/>
<path d="M0 0 C4.55737263 0.43820891 7.57653445 0.85041169 11 4 C7.80097361 4.08886184 5.07322544 3.91058531 2 3 C2 2.34 2 1.68 2 1 C1.34 0.67 0.68 0.34 0 0 Z " fill="#228C1F" transform="translate(467,451)"/>
<path d="M0 0 C0 0.99 0 1.98 0 3 C-3 5 -3 5 -5.1875 4.625 C-5.785625 4.41875 -6.38375 4.2125 -7 4 C-4.82575883 1.49962266 -3.26954202 0.56371414 0 0 Z " fill="#379432" transform="translate(446,412)"/>
<path d="M0 0 C3.63 0 7.26 0 11 0 C8.58798021 2.41201979 7.37036311 2.75925978 4 3 C2.68 2.01 1.36 1.02 0 0 Z " fill="#288F24" transform="translate(594,339)"/>
<path d="M0 0 C-0.99 0.495 -0.99 0.495 -2 1 C-2 1.66 -2 2.32 -2 3 C-4.97 3 -7.94 3 -11 3 C-7.72430636 -0.27569364 -4.48909309 -0.12469703 0 0 Z " fill="#66BF16" transform="translate(570,449)"/>
<path d="M0 0 C0.66 0 1.32 0 2 0 C2.25 6.625 2.25 6.625 0 10 C-0.19412181 8.52168779 -0.38012131 7.04230684 -0.5625 5.5625 C-0.66691406 4.73878906 -0.77132812 3.91507812 -0.87890625 3.06640625 C-0.91886719 2.38449219 -0.95882812 1.70257813 -1 1 C-0.67 0.67 -0.34 0.34 0 0 Z " fill="#268F1B" transform="translate(616,446)"/>
<path d="M0 0 C0.66 0.33 1.32 0.66 2 1 C-2.39453125 5.00390625 -2.39453125 5.00390625 -4 6 C-4.99 5.67 -5.98 5.34 -7 5 C-5.47058649 1.94117299 -3.05780454 1.31048766 0 0 Z " fill="#EFF8EB" transform="translate(559,231)"/>
</svg>
